<svg version="1.2" baseProfile="tiny-ps" xmlns="http://www.w3.org/2000/svg" viewBox="0 0 447 447" width="447" height="447">
	<title>cart-svg</title>
	<style>
		tspan { white-space:pre }
		.s0 { fill: #f5f5f5 } 
	</style>
	<g id="Layer">
		<path id="Layer" fill-rule="evenodd" class="s0" d="m446.16 105.93l-59.74 186.39c-1.9 5.93-7.42 9.96-13.65 9.96h-216.22l-12.9 35.84h229.12c6.6 0 11.95 5.35 11.95 11.95c0 6.6-5.35 11.95-11.95 11.95h-13.43c6.84 7.62 11.04 17.65 11.04 28.68c0 23.72-19.29 43.01-43.01 43.01c-23.72 0-43.01-19.29-43.01-43.01c0-11.03 4.2-21.06 11.05-28.68h-93.78c6.84 7.62 11.04 17.65 11.04 28.68c0 23.72-19.3 43.01-43.01 43.01c-23.71 0-43.01-19.29-43.01-43.01c0-11.03 4.2-21.06 11.05-28.68h-11.05c-3.89 0-7.53-1.89-9.77-5.08c-2.24-3.18-2.79-7.25-1.47-10.92l15.75-43.74h-6.9c-6.92 0-12.85-4.94-14.1-11.75l-41.57-226.34l-59.49-23.37c-7.37-2.9-10.99-11.22-8.1-18.59c2.9-7.37 11.22-10.99 18.59-8.1l66.91 26.29c4.62 1.81 7.96 5.88 8.86 10.75l40.85 222.43h226.11l50.81-158.53l-258.42-11.14c-7.91-0.34-14.04-7.03-13.71-14.94c0.34-7.92 6.99-14.06 14.94-13.71l277.19 11.95c4.47 0.19 8.59 2.46 11.14 6.12c2.56 3.67 3.26 8.32 1.89 12.57zm-257.38 284.77c0-10.54-8.57-19.12-19.12-19.12c-10.54 0-19.12 8.57-19.12 19.12c0 10.54 8.57 19.12 19.12 19.12c10.54 0 19.12-8.57 19.12-19.12zm157.71 0c0-10.54-8.57-19.12-19.12-19.12c-10.54 0-19.12 8.57-19.12 19.12c0 10.54 8.57 19.12 19.12 19.12c10.54 0 19.12-8.57 19.12-19.12z" />
	</g>
	<g id="Layer">
	</g>
	<g id="Layer">
	</g>
	<g id="Layer">
	</g>
	<g id="Layer">
	</g>
	<g id="Layer">
	</g>
	<g id="Layer">
	</g>
	<g id="Layer">
	</g>
	<g id="Layer">
	</g>
	<g id="Layer">
	</g>
	<g id="Layer">
	</g>
	<g id="Layer">
	</g>
	<g id="Layer">
	</g>
	<g id="Layer">
	</g>
	<g id="Layer">
	</g>
	<g id="Layer">
	</g>
</svg>