<svg version="1.2" baseProfile="tiny-ps" xmlns="http://www.w3.org/2000/svg" viewBox="0 0 459 459" width="459" height="459">
	<title>user-svg</title>
	<style>
		tspan { white-space:pre }
		.s0 { fill: #f5f5f5 } 
	</style>
	<g id="XMLID_1315_">
		<g id="Layer">
			<g id="Layer">
				<path id="Layer" class="s0" d="m229.5 245c-39.54 0-71.5-37.55-71.5-84c0-46.45 31.96-84 71.5-84c39.54 0 71.5 37.55 71.5 84c0 46.45-31.96 84-71.5 84z" />
				<path id="Layer" fill-rule="evenodd" class="s0" d="m459 229.5c0 127.16-103.01 229.5-229.5 229.5c-127.31 0-229.5-103.18-229.5-229.5c0-126.73 102.69-229.5 229.5-229.5c126.9 0 229.5 102.82 229.5 229.5zm-61.45 87.74c-15.23-39.9-45.26-72.93-83.61-92.85c11.09-18.61 17.06-40.54 17.06-63.4c0-63.31-45.51-114-101.5-114c-55.88 0-101.5 50.57-101.5 114c0 22.83 5.96 44.73 17.02 63.32c-14.56 7.55-28.11 17.09-40.25 28.49c-19.54 18.34-34.21 40.31-43.36 64.36c6.03 11.53 13.27 22.47 21.68 32.66c8.87-45.14 39.41-82.34 80.92-101.64c17.51 16.62 40.4 26.8 65.48 26.8c24.42 0 47.35-9.69 65.29-26.62c41.42 19.46 72.11 56.81 81.08 101.5c8.41-10.19 15.65-21.12 21.69-32.64z" />
			</g>
		</g>
	</g>
	<g id="Layer">
	</g>
	<g id="Layer">
	</g>
	<g id="Layer">
	</g>
	<g id="Layer">
	</g>
	<g id="Layer">
	</g>
	<g id="Layer">
	</g>
	<g id="Layer">
	</g>
	<g id="Layer">
	</g>
	<g id="Layer">
	</g>
	<g id="Layer">
	</g>
	<g id="Layer">
	</g>
	<g id="Layer">
	</g>
	<g id="Layer">
	</g>
	<g id="Layer">
	</g>
	<g id="Layer">
	</g>
</svg>